#!OML:ASF X:\für Bonn\!DataBase\2005_08_12_Daniel\c3d\Daniel.ASF
:FULLY-SPECIFIED
:DEGREES
126
root -2.96276 11.749 -3.03132 311.491 -79.7171 -327.281
lowerback 49.7614 -3.67196 -0.492077
upperback 3.98739 -6.57635 -3.69155
thorax -16.7065 -3.14367 -0.517431
lowerneck 11.1847 2.14119 -3.5864
upperneck -5.32795 2.18041 -1.52679
head -3.76834 1.22342 -0.0169351
rclavicle 4.59193e-014 9.93923e-015
rhumerus 68.9815 3.99766 -82.977
rradius 10.9828
rwrist 47.5
rhand -29.4704 12.9565
rfingers 7.12502
rthumb -2.80604 -17.0048
lclavicle 4.59193e-014 9.93923e-015
lhumerus 72.9144 -1.52852 86.2264
lradius 7.25024
lwrist -62.7319
lhand -21.5423 1.55906
lfingers 7.12502
lthumb 4.85071 31.4835
rfemur -50.6383 -34.3539 -5.78145
rtibia 121.011
rfoot -8.47487 14.2822
rtoes -5.20873
lfemur -58.1945 12.174 -17.7024
ltibia 114.363
lfoot -15.6792 -13.4393
ltoes -5.81763
127
root -2.98151 11.9509 -3.03273 311.879 -79.6726 -327.298
lowerback 49.1836 -3.64746 -0.563536
upperback 3.98388 -6.54972 -3.6591
thorax -16.601 -3.12784 -0.472104
lowerneck 11 2.15762 -3.60565
upperneck -5.15954 2.21181 -1.52424
head -3.67276 1.23553 -0.0113606
rclavicle 3.53837e-014 -2.06736e-014
rhumerus 68.7171 4.02817 -83.1061
rradius 11.1557
rwrist 47.5563
rhand -29.5958 12.9749
rfingers 7.12502
rthumb -2.92711 -16.9847
lclavicle 3.53837e-014 -2.06736e-014
lhumerus 72.737 -1.48998 86.2785
lradius 7.38769
lwrist -62.9395
lhand -21.721 1.31291
lfingers 7.12502
lthumb 4.67821 31.2413
rfemur -50.0943 -32.5083 -4.70935
rtibia 119.286
rfoot -8.16094 12.9411
rtoes -4.91703
lfemur -57.2076 11.5797 -17.9607
ltibia 112.595
lfoot -15.3037 -12.9142
ltoes -5.91376
128
root -3.00207 12.1542 -3.03477 312.351 -79.6483 -327.427
lowerback 47.7855 -3.65701 -0.52285
upperback 4.99319 -6.50526 -3.76476
thorax -16.6907 -3.12007 -0.466401
lowerneck 10.8088 2.17987 -3.67582
upperneck -4.94669 2.24999 -1.45841
head -3.56245 1.2484 0.0241699
rclavicle -1.09332e-014 1.51076e-014
rhumerus 68.4835 4.05685 -83.1239
rradius 11.276
rwrist 47.5554
rhand -29.7352 13.0089
rfingers 7.12502
rthumb -3.06172 -16.9489
lclavicle -1.09332e-014 1.51076e-014
lhumerus 72.5369 -1.46089 86.3249
lradius 7.52193
lwrist -63.1487
lhand -21.8797 1.08298
lfingers 7.12502
lthumb 4.52491 31.0146
rfemur -49.4066 -30.7692 -3.705
rtibia 117.504
rfoot -7.92775 11.6605
rtoes -4.76044
lfemur -56.1595 11.0495 -18.1613
ltibia 110.791
lfoot -14.9196 -12.4209
ltoes -5.93817
129
root -3.02394 12.356 -3.03582 312.773 -79.6217 -327.502
lowerback 47.2247 -3.63468 -0.583422
upperback 4.95204 -6.47343 -3.72662
thorax -16.5748 -3.10245 -0.428504
lowerneck 10.6502 2.21036 -3.73291
upperneck -4.77475 2.29837 -1.39794
head -3.4733 1.26721 0.0541722
rclavicle 6.55989e-015 5.96354e-015
rhumerus 68.2488 4.10781 -83.1044
rradius 11.41
rwrist 47.5181
rhand -29.7547 13.0031
rfingers 7.12502
rthumb -3.0806 -16.9544
lclavicle 6.55989e-015 5.96354e-015
lhumerus 72.3547 -1.4485 86.3839
lradius 7.63847
lwrist -63.3336
lhand -22.003 0.89286
lfingers 7.12502
lthumb 4.40589 30.827
rfemur -48.6494 -29.1776 -2.80766
rtibia 115.686
rfoot -7.73389 10.4631
rtoes -4.62261
lfemur -55.1189 10.5398 -18.3581
ltibia 108.974
lfoot -14.5235 -11.9776
ltoes -5.89338
130
root -3.0467 12.5579 -3.03715 313.219 -79.6019 -327.633
lowerback 46.7073 -3.61289 -0.646361
upperback 4.90134 -6.44028 -3.66746
thorax -16.4762 -3.08303 -0.36516
lowerneck 10.4412 2.24804 -3.8452
upperneck -4.54731 2.35264 -1.32849
head -3.35653 1.28836 0.0973818
rclavicle 4.4329e-014 -2.38542e-015
rhumerus 67.9736 4.17371 -83.054
rradius 11.5729
rwrist 47.4759
rhand -29.698 13.0313
rfingers 7.12502
rthumb -3.02582 -16.9269
lclavicle 4.4329e-014 -2.38542e-015
lhumerus 72.1581 -1.40231 86.4637
lradius 7.7775
lwrist -63.4886
lhand -21.9563 0.753231
lfingers 7.12502
lthumb 4.45099 30.6865
rfemur -47.7997 -27.6739 -1.98635
rtibia 113.826
rfoot -7.54072 9.33194
rtoes -4.39426
lfemur -54.0143 10.0537 -18.5285
ltibia 107.116
lfoot -14.1538 -11.5313
ltoes -5.96203
131
root -3.07121 12.7593 -3.03789 313.646 -79.5796 -327.745
lowerback 46.1912 -3.59821 -0.695372
upperback 4.84099 -6.41278 -3.63021
thorax -16.3917 -3.06644 -0.330169
lowerneck 10.2212 2.2699 -3.87624
upperneck -4.3047 2.39552 -1.29369
head -3.23095 1.30351 0.115784
rclavicle 3.37934e-015 1.23246e-014
rhumerus 67.6826 4.18332 -83.121
rradius 11.7196
rwrist 47.6233
rhand -29.5563 13.0828
rfingers 7.12502
rthumb -2.88892 -16.8774
lclavicle 3.37934e-015 1.23246e-014
lhumerus 71.9526 -1.40216 86.528
lradius 7.87206
lwrist -63.6452
lhand -21.9081 0.671042
lfingers 7.12502
lthumb 4.49753 30.6033
rfemur -46.8969 -26.2664 -1.24344
rtibia 111.923
rfoot -7.35439 8.26724
rtoes -4.20603
lfemur -52.8845 9.58199 -18.6868
ltibia 105.229
lfoot -13.8048 -11.121
ltoes -5.98315
132
root -3.09672 12.9578 -3.03889 314.11 -79.5725 -327.924
lowerback 45.7181 -3.59374 -0.715674
upperback 4.77876 -6.38754 -3.60361
thorax -16.3237 -3.05224 -0.318958
lowerneck 9.93413 2.29049 -3.90802
upperneck -4.02845 2.44463 -1.20792
head -3.08248 1.31915 0.151516
rclavicle 1.51076e-014 -1.66979e-014
rhumerus 67.3946 4.18709 -83.1536
rradius 11.8554
rwrist 47.7503
rhand -29.3468 13.0699
rfingers 7.12502
rthumb -2.68666 -16.8929
lclavicle 1.51076e-014 -1.66979e-014
lhumerus 71.774 -1.38603 86.5673
lradius 7.9239
lwrist -63.7961
lhand -21.7715 0.610149
lfingers 7.12502
lthumb 4.62938 30.5396
rfemur -45.9288 -24.9621 -0.542211
rtibia 109.995
rfoot -7.1987 7.27196
rtoes -4.09384
lfemur -51.7143 9.13339 -18.8122
ltibia 103.324
lfoot -13.4968 -10.703
ltoes -6.04239
133
root -3.12307 13.1577 -3.03964 314.598 -79.5707 -328.123
lowerback 45.252 -3.58883 -0.747646
upperback 4.69975 -6.36472 -3.56447
thorax -16.2729 -3.03708 -0.286105
lowerneck 9.60909 2.31749 -3.91909
upperneck -3.6895 2.50439 -1.16441
head -2.9054 1.34013 0.170006
rclavicle -4.4329e-014 -1.07344e-014
rhumerus 67.129 4.26265 -82.9789
rradius 11.9257
rwrist 47.6725
rhand -29.1481 13.1048
rfingers 7.12502
rthumb -2.49471 -16.8603
lclavicle -4.4329e-014 -1.07344e-014
lhumerus 71.5868 -1.37342 86.6209
lradius 7.92408
lwrist -63.9218
lhand -21.6286 0.622989
lfingers 7.12502
lthumb 4.7674 30.5494
rfemur -44.9505 -23.7339 0.129744
rtibia 108.04
rfoot -7.05225 6.26869
rtoes -4.07186
lfemur -50.5315 8.69801 -18.9199
ltibia 101.396
lfoot -13.2004 -10.3284
ltoes -6.05291
134
root -3.1502 13.356 -3.04089 315.038 -79.562 -328.292
lowerback 44.7707 -3.56689 -0.804076
upperback 4.62776 -6.32915 -3.5086
thorax -16.2015 -3.01577 -0.229805
lowerneck 9.36448 2.34517 -3.95826
upperneck -3.38804 2.55621 -1.12218
head -2.75807 1.3585 0.192302
rclavicle 0 1.15295e-014
rhumerus 66.8583 4.31832 -82.8197
rradius 12.0213
rwrist 47.6667
rhand -28.8538 13.068
rfingers 7.12502
rthumb -2.21047 -16.9003
lclavicle 0 1.15295e-014
lhumerus 71.3771 -1.363 86.7044
lradius 7.90834
lwrist -63.9879
lhand -21.4962 0.70956
lfingers 7.12502
lthumb 4.89527 30.633
rfemur -43.9458 -22.5917 0.743708
rtibia 106.064
rfoot -6.87298 5.31815
rtoes -4.05667
lfemur -49.3213 8.26677 -19.0208
ltibia 99.4624
lfoot -12.934 -9.97288
ltoes -6.10163
135
root -3.17864 13.554 -3.04135 315.532 -79.5675 -328.522
lowerback 44.2684 -3.55467 -0.837479
upperback 4.56754 -6.29504 -3.4579
thorax -16.1096 -2.9975 -0.191667
lowerneck 9.13094 2.37176 -4.00546
upperneck -3.11356 2.60598 -1.05957
head -2.62344 1.37589 0.22234
rclavicle 3.69739e-014 1.70955e-014
rhumerus 66.5532 4.27327 -82.9591
rradius 12.1636
rwrist 47.9855
rhand -28.559 13.0098
rfingers 7.12502
rthumb -1.92584 -16.9612
lclavicle 3.69739e-014 1.70955e-014
lhumerus 71.137 -1.3497 86.7752
lradius 7.9585
lwrist -63.9913
lhand -21.2909 0.830585
lfingers 7.12502
lthumb 5.09349 30.7494
rfemur -42.9168 -21.5127 1.32831
rtibia 104.067
rfoot -6.69872 4.39973
rtoes -4.0589
lfemur -48.0719 7.81795 -19.0905
ltibia 97.5016
lfoot -12.6746 -9.64091
ltoes -6.02415
136
root -3.20778 13.7492 -3.04164 316.063 -79.5871 -328.807
lowerback 43.7781 -3.54783 -0.846585
upperback 4.49832 -6.25746 -3.41291
thorax -16.0328 -2.97855 -0.173393
lowerneck 8.99064 2.39227 -4.04835
upperneck -2.87401 2.64184 -1.00526
head -2.51839 1.38739 0.248394
rclavicle 9.44227e-015 1.51076e-014
rhumerus 66.1984 4.21055 -83.097
rradius 12.34
rwrist 48.2952
rhand -28.2421 12.8545
rfingers 7.12502
rthumb -1.61973 -17.1191
lclavicle 9.44227e-015 1.51076e-014
lhumerus 70.8311 -1.36173 86.8443
lradius 8.05284
lwrist -63.9083
lhand -21.1014 0.965879
lfingers 7.12502
lthumb 5.27646 30.8802
rfemur -41.8868 -20.536 1.88755
rtibia 102.066
rfoot -6.46688 3.51981
rtoes -4.23724
lfemur -46.8353 7.38548 -19.1395
ltibia 95.5492
lfoot -12.4459 -9.28476
ltoes -6.02906
137
root -3.23795 13.9429 -3.04219 316.78 -79.6603 -329.281
lowerback 43.2694 -3.54423 -0.828428
upperback 4.43179 -6.20728 -3.34948
thorax -15.9439 -2.95586 -0.156043
lowerneck 8.8768 2.42489 -4.06989
upperneck -2.66138 2.69352 -0.966318
head -2.42742 1.40759 0.264541
rclavicle -3.19049e-014 -1.55052e-014
rhumerus 65.8396 4.08117 -83.5023
rradius 12.4949
rwrist 48.8741
rhand -27.9244 12.7225
rfingers 7.12502
rthumb -1.31291 -17.2532
lclavicle -3.19049e-014 -1.55052e-014
lhumerus 70.4835 -1.33927 86.9011
lradius 8.22637
lwrist -63.7613
lhand -20.8117 1.08747
lfingers 7.12502
lthumb 5.55611 30.9946
rfemur -40.8811 -19.6057 2.49775
rtibia 100.063
rfoot -6.17947 2.65526
rtoes -4.3745
lfemur -45.6002 6.95113 -19.1136
ltibia 93.5903
lfoot -12.2112 -8.91108
ltoes -6.16366
138
root -3.26948 14.1355 -3.04316 317.624 -79.758 -329.9
lowerback 42.7459 -3.53909 -0.782648
upperback 4.3756 -6.14031 -3.27314
thorax -15.8354 -2.92816 -0.148125
lowerneck 8.89477 2.45376 -4.15809
upperneck -2.50601 2.72667 -0.883003
head -2.38224 1.41913 0.305556
rclavicle -6.16232e-015 1.19271e-015
rhumerus 65.5202 3.95514 -83.799
rradius 12.5917
rwrist 49.3595
rhand -27.6985 12.522
rfingers 7.12502
rthumb -1.09471 -17.4549
lclavicle -6.16232e-015 1.19271e-015
lhumerus 70.0971 -1.34073 86.9752
lradius 8.47695
lwrist -63.6484
lhand -20.5057 1.29156
lfingers 7.12502
lthumb 5.85159 31.1908
rfemur -39.8855 -18.7314 3.12253
rtibia 98.0627
rfoot -5.82464 1.76229
rtoes -4.64434
lfemur -44.3494 6.51309 -19.0411
ltibia 91.6195
lfoot -11.9527 -8.54045
ltoes -6.12381
139
root -3.30295 14.3263 -3.04391 318.361 -79.827 -330.405
lowerback 42.2051 -3.53617 -0.759699
upperback 4.30256 -6.09001 -3.21618
thorax -15.7397 -2.90566 -0.141981
lowerneck 8.86502 2.4833 -4.21795
upperneck -2.29876 2.7662 -0.813215
head -2.31032 1.43282 0.337791
rclavicle -8.24956e-015 -2.10712e-014
rhumerus 65.1745 3.80416 -84.1685
rradius 12.6453
rwrist 49.9354
rhand -27.5073 12.3328
rfingers 7.12502
rthumb -0.910013 -17.645
lclavicle -8.24956e-015 -2.10712e-014
lhumerus 69.6572 -1.34157 87.0323
lradius 8.74967
lwrist -63.4745
lhand -20.1853 1.43919
lfingers 7.12502
lthumb 6.16096 31.3296
rfemur -38.8948 -17.9529 3.65227
rtibia 96.0929
rfoot -5.39577 0.966818
rtoes -4.86496
lfemur -43.0917 6.02599 -19.0124
ltibia 89.6302
lfoot -11.7485 -8.13422
ltoes -6.17142
